<svg width="20" height="20" viewBox="0 0 20 20" fill="none" xmlns="http://www.w3.org/2000/svg">
<path d="M3.33317 16.6666C2.87484 16.6666 2.48248 16.5034 2.15609 16.177C1.8297 15.8506 1.6665 15.4583 1.6665 14.9999V4.99992C1.6665 4.54159 1.8297 4.14922 2.15609 3.82284C2.48248 3.49645 2.87484 3.33325 3.33317 3.33325H8.33317L9.99984 4.99992H16.6665C17.1248 4.99992 17.5172 5.16311 17.8436 5.4895C18.17 5.81589 18.3332 6.20825 18.3332 6.66658H9.31234L7.64567 4.99992H3.33317V14.9999L5.33317 8.33325H19.5832L17.4373 15.4791C17.3262 15.8402 17.1214 16.1284 16.8228 16.3437C16.5241 16.5589 16.1943 16.6666 15.8332 16.6666H3.33317ZM5.08317 14.9999H15.8332L17.3332 9.99992H6.58317L5.08317 14.9999Z" fill="#444444"/>
</svg>
