<svg width="40" height="40" viewBox="0 0 40 40" fill="none" xmlns="http://www.w3.org/2000/svg">
<g clip-path="url(#clip0_4_5946)">
<path d="M15.4165 32.0833V31.25H9.16654C8.17238 31.2486 7.21933 30.8531 6.51635 30.1502C5.81338 29.4472 5.41786 28.4941 5.41654 27.5V26.8633C5.41327 26.0704 5.63256 25.2925 6.04947 24.6181C6.46638 23.9437 7.06418 23.3998 7.77487 23.0483C8.09278 22.8895 8.36466 22.6518 8.56453 22.358C8.76441 22.0642 8.8856 21.724 8.91654 21.37L9.65987 13.1866C9.80016 11.6425 10.2846 10.1495 11.0777 8.81715C11.8708 7.48486 12.9523 6.34718 14.2427 5.48772C15.5332 4.62826 16.9998 4.06886 18.5349 3.85063C20.0699 3.6324 21.6343 3.76088 23.1132 4.22663C22.6561 4.9373 22.3 5.70799 22.0549 6.51663C21.3844 6.33891 20.6935 6.24927 19.9999 6.24996C18.0314 6.24073 16.1316 6.97296 14.6786 8.30094C13.2255 9.62892 12.3257 11.4553 12.1582 13.4166L11.4165 21.5966C11.3476 22.3754 11.0798 23.1233 10.6388 23.7688C10.1979 24.4144 9.59852 24.9359 8.89821 25.2833C8.60296 25.4287 8.35443 25.654 8.18089 25.9336C8.00735 26.2132 7.91576 26.5359 7.91654 26.865V27.5016C7.91742 27.8327 8.04945 28.15 8.28373 28.384C8.51801 28.6179 8.83544 28.7495 9.16654 28.75H30.8332C31.1646 28.7495 31.4823 28.6177 31.7166 28.3834C31.9509 28.149 32.0828 27.8314 32.0832 27.5V26.8633C32.0845 26.5349 31.9937 26.2128 31.821 25.9335C31.6484 25.6542 31.4008 25.4289 31.1065 25.2833C30.4053 24.9365 29.8049 24.4153 29.3631 23.7697C28.9212 23.1242 28.6527 22.3759 28.5832 21.5966L28.2499 17.9633C29.076 18.2055 29.9323 18.3295 30.7932 18.3316L31.0699 21.3683C31.1035 21.7213 31.226 22.0601 31.4259 22.353C31.6259 22.6459 31.8967 22.8833 32.2132 23.0433C32.9245 23.395 33.5229 23.9391 33.9407 24.6137C34.3584 25.2883 34.5787 26.0665 34.5765 26.86V27.4966C34.5757 28.4909 34.1803 29.4442 33.4772 30.1473C32.7741 30.8504 31.8208 31.2457 30.8265 31.2466H24.5832V32.0833C24.5832 33.2989 24.1003 34.4647 23.2408 35.3242C22.3812 36.1837 21.2154 36.6666 19.9999 36.6666C18.7843 36.6666 17.6185 36.1837 16.759 35.3242C15.8994 34.4647 15.4165 33.2989 15.4165 32.0833ZM17.9165 32.0833C17.9165 32.6358 18.136 33.1657 18.5267 33.5564C18.9174 33.9471 19.4473 34.1666 19.9999 34.1666C20.5524 34.1666 21.0823 33.9471 21.473 33.5564C21.8637 33.1657 22.0832 32.6358 22.0832 32.0833V31.25H17.9165V32.0833ZM30.4949 14.99C29.5867 14.9376 28.7036 14.6727 27.9165 14.2166L27.8432 13.4166C27.6652 11.3537 26.6777 9.44519 25.0965 8.1083C25.2556 7.25526 25.6029 6.44844 26.1132 5.74663C27.3053 6.61523 28.2984 7.72819 29.0262 9.01119C29.7539 10.2942 30.1995 11.7177 30.3332 13.1866L30.4999 14.9883L30.4949 14.99Z" fill="#141124"/>
<path d="M30.8333 14.9999C29.6796 14.9999 28.5518 14.6578 27.5925 14.0168C26.6332 13.3759 25.8855 12.4648 25.444 11.3989C25.0025 10.333 24.887 9.16012 25.1121 8.02856C25.3372 6.89701 25.8927 5.8576 26.7085 5.0418C27.5244 4.22599 28.5638 3.67042 29.6953 3.44534C30.8269 3.22026 31.9998 3.33578 33.0657 3.77729C34.1316 4.2188 35.0426 4.96647 35.6836 5.92576C36.3245 6.88505 36.6667 8.01286 36.6667 9.16659C36.6667 10.7137 36.0521 12.1974 34.9581 13.2914C33.8642 14.3853 32.3804 14.9999 30.8333 14.9999Z" fill="#FF6359"/>
</g>
<defs>
<clipPath id="clip0_4_5946">
<rect width="40" height="40" fill="white"/>
</clipPath>
</defs>
</svg>
